# xmcd
#
# Track frame offsets:
#	150
#	14942
#	32822
#	41237
#	53775
#	71025
#	77925
#	93755
#	110250
#	124895
#	138437
#	148785
#	159760
#	162765
#
# Disc length: 2356 seconds
#
# Revision: 1
# Processed by: cddbd v1.5.1PL0 Copyright (c) Steve Scherf et al.
# Submitted via: CDex 1.50Beta5
#
DISCID=c209320e
DTITLE=さまざまなアーティスト - 西部警察サウンドトラック 総集編
DYEAR=1900
DGENRE=Soundtrack
TTITLE0=作曲編曲・宇都宮安重/西部警察メインテーマ
TTITLE1=作曲編曲・石田勝範/マシンXのテーマ
TTITLE2=作曲編曲・石田勝範/出動のテーマ
TTITLE3=作曲編曲・石田勝範/RUNNING FIGHTERS
TTITLE4=作曲編曲・宇都宮安重/小暮刑事のテーマ
TTITLE5=作曲編曲・宇都宮安重/男たち・愛のテーマ
TTITLE6=歌・石原裕次郎/作詞・池田充男/作曲・野崎真一/編曲・竜崎孝路/夜明けの街
TTITLE7=作曲編曲・石田勝範/サスペンス
TTITLE8=作曲編曲・宇都宮安重/ダイナミック・シチュエィション
TTITLE9=作曲編曲・宇都宮安重/コンクリート・ラプソディー
TTITLE10=作曲・宇都宮安重/編曲・石田勝範/大門刑事のテーマ
TTITLE11=作曲編曲・小谷充/ブランデーグラス
TTITLE12=作曲編曲・宇都宮安重/BRIDGE No.3
TTITLE13=歌・幸田薫/作詞作曲・たきのえいじ/編曲・神保正明/想い出はたそがれ色
EXTD=
EXTT0=
EXTT1=
EXTT2=
EXTT3=
EXTT4=
EXTT5=
EXTT6=
EXTT7=
EXTT8=
EXTT9=
EXTT10=
EXTT11=
EXTT12=
EXTT13=
PLAYORDER=
